FILE "Super Sheep (2022-04-18)(dertom1985).bin" BINARY
  TRACK 01 MODE2/2352
    INDEX 01 00:00:00
  TRACK 02 AUDIO
    INDEX 00 00:18:68
    INDEX 01 00:20:68
  TRACK 03 AUDIO
    INDEX 00 01:14:18
    INDEX 01 01:16:18
  TRACK 04 AUDIO
    INDEX 00 02:28:18
    INDEX 01 02:30:18
